# xmcd CD database file
#
# Track frame offsets:
#	187
#	14145
#	29197
#	41727
#	56155
#	69417
#	82790
#	95725
#	108247
#	123187
#	138400
#	151930
#	164497
#	178537
#	191205
#	204625
#	219222
#
# Disc length: 3118 seconds
#
# Revision: 0
# Processed by: cddbd v1.4PL0 Copyright (c) Steve Scherf et al.
# Submitted via: CDex 1.51
#
DISCID=f50c2c11
DTITLE=Ethel Waters - Cabin In The Sky
DYEAR=1900
DGENRE=Jazz
TTITLE0=Midnight Blues
TTITLE1=Ethel Sings 'Em
TTITLE2=Brother You've Got Me Wrong
TTITLE3=Shake That Thing
TTITLE4=I've Found A New Baby
TTITLE5=Lonesome Swallow
TTITLE6=Guess Who's In Town
TTITLE7=My Handy Man
TTITLE8=West End Blues
TTITLE9=A New Kind Of Love (Un Nouveau Bonheur)
TTITLE10=Cabin In The Sky
TTITLE11=Dinah
TTITLE12=Man Wanted
TTITLE13=Am I Blue
TTITLE14=Taking A Chance On Love
TTITLE15=Sometimes I Feel Like A Motherless Child
TTITLE16=Little Black Boy
EXTD=
EXTT0=
EXTT1=
EXTT2=
EXTT3=
EXTT4=
EXTT5=
EXTT6=
EXTT7=
EXTT8=
EXTT9=
EXTT10=
EXTT11=
EXTT12=
EXTT13=
EXTT14=
EXTT15=
EXTT16=
PLAYORDER=
